<svg width="20" height="20" viewBox="0 0 20 20" fill="none" xmlns="http://www.w3.org/2000/svg">
<g clip-path="url(#clip0_3053_5673)">
<path d="M10 5C8.27411 5 6.875 6.39911 6.875 8.125C6.875 9.85089 8.27411 11.25 10 11.25C11.7259 11.25 13.125 9.85089 13.125 8.125C13.125 7.2962 12.7958 6.50134 12.2097 5.91529C11.6237 5.32924 10.8288 5 10 5ZM10 10C8.96447 10 8.125 9.16053 8.125 8.125C8.125 7.08947 8.96447 6.25 10 6.25C11.0355 6.25 11.875 7.08947 11.875 8.125C11.875 9.16053 11.0355 10 10 10Z" fill="white"/>
<path d="M10 1.25C5.16751 1.25 1.25 5.16751 1.25 10C1.25 14.8325 5.16751 18.75 10 18.75C14.8325 18.75 18.75 14.8325 18.75 10C18.75 7.67936 17.8281 5.45376 16.1872 3.81282C14.5462 2.17187 12.3206 1.25 10 1.25ZM6.25 16.4875V15.625C6.25 14.5895 7.08947 13.75 8.125 13.75H11.875C12.9105 13.75 13.75 14.5895 13.75 15.625V16.4875C11.4323 17.8376 8.56771 17.8376 6.25 16.4875ZM15 15.5813C14.9761 13.8725 13.5839 12.4998 11.875 12.5H8.125C6.41605 12.4998 5.02393 13.8725 5 15.5813C2.68223 13.5082 1.88413 10.2198 2.99371 7.31491C4.10329 4.40999 6.89038 2.49108 10 2.49108C13.1096 2.49108 15.8967 4.40999 17.0063 7.31491C18.1159 10.2198 17.3178 13.5082 15 15.5813Z" fill="white"/>
</g>
<defs>
<clipPath id="clip0_3053_5673">
<rect width="20" height="20" fill="white"/>
</clipPath>
</defs>
</svg>
