<svg width="16" height="16" viewBox="0 0 16 16" fill="none" xmlns="http://www.w3.org/2000/svg">
<g clip-path="url(#clip0_3053_5684)">
<path d="M8 1C4.13401 1 1 4.13401 1 8C1 11.866 4.13401 15 8 15C11.866 15 15 11.866 15 8C15 6.14348 14.2625 4.36301 12.9497 3.05025C11.637 1.7375 9.85652 1 8 1ZM2 8C2.00345 6.29686 2.73055 4.67543 4 3.54V4.5C4 5.05228 4.44772 5.5 5 5.5H6.69C7.06947 5.4998 7.41613 5.28483 7.585 4.945L7.81 4.5H9V6.5H6.62C6.46386 6.49939 6.30975 6.53535 6.17 6.605L4.555 7.415C4.21517 7.58387 4.0002 7.93053 4 8.31V10.16C3.9996 10.5698 4.24928 10.9384 4.63 11.09L6.555 11.86L6.89 13.895C4.05469 13.3613 2.00069 10.8851 2 8ZM7.925 14L7.425 11.145L4.98 10.145V8.295L6.62 7.5H10V3.5H7.19L6.69 4.5H5V2.81C6.54297 1.9207 8.40126 1.7628 10.0722 2.379C11.7431 2.9952 13.0539 4.32183 13.65 6H11V8L11.46 9.905L10.5 11.35V13.445C9.71751 13.8113 8.86397 14.0008 8 14H7.925ZM11.5 12.865V11.65L12.295 10.46C12.4496 10.2257 12.4986 9.9372 12.43 9.665L12 7.94V7H13.91C14.3084 9.25654 13.3699 11.5405 11.5 12.865Z" fill="#212429"/>
</g>
<defs>
<clipPath id="clip0_3053_5684">
<rect width="16" height="16" fill="white"/>
</clipPath>
</defs>
</svg>
